<svg xmlns="http://www.w3.org/2000/svg" width="254" height="254" viewBox="0 0 254 254" fill="none"><path fill-rule="evenodd" clip-rule="evenodd" d="M244.831 106.122C241.905 127.941 238.602 139.466 219.322 162.315C200.042 185.164 111.815 200.196 79.1975 200.196C46.5802 200.196 6.38302 175.044 8.91997 145.902C11.4569 116.76 24.6926 92.9417 56.3728 90.0096C88.7483 87.013 117.187 100.889 148.973 93.4474C176.452 87.013 184.86 62.4885 203.734 54.7513C241.905 39.1029 246.822 91.2785 244.831 106.122Z" fill="#D0E8FC"></path><path d="M225.193 116.778C224.115 118.606 210.463 127.855 202.182 129.224C200.58 129.489 198.83 129.58 197.438 128.743C196.616 128.248 196.003 127.478 195.421 126.715C194.09 124.971 192.821 123.181 191.616 121.348C190.982 120.385 190.354 119.38 190.139 118.247C189.569 115.248 191.987 112.555 194.375 110.655C199.867 106.287 206.297 103.105 213.1 101.389C214.304 101.085 215.581 100.828 216.775 101.173C218.711 101.733 219.869 103.692 220.608 105.568C221.347 107.443 221.923 109.495 223.4 110.867C223.737 111.18 226.271 114.95 225.193 116.778Z" fill="white"></path><path fill-rule="evenodd" clip-rule="evenodd" d="M151.839 196.462C138.59 198.729 144.905 189.099 146.732 177.046C149.734 157.241 153.436 127.145 153.436 127.145C153.436 127.145 155.851 173.005 155.851 184.171C155.851 195.338 153.436 196.19 151.839 196.462Z" fill="white"></path><path d="M137.682 185.55C138.02 188.74 138.377 191.996 139.732 194.903C138.992 188.321 138.253 181.739 137.513 175.157C137.422 174.345 137.449 173.31 138.197 172.978C138.83 180.41 139.773 187.816 141.024 195.169C141.172 196.043 139.861 196.541 139.124 196.05C138.388 195.558 138.152 194.601 137.985 193.731C136.764 187.394 136.093 180.952 135.982 174.5C134.428 174.806 133.339 176.313 133.024 177.865C132.71 179.416 133.013 181.019 133.316 182.574C134.29 187.577 135.264 192.58 136.239 197.583C136.695 199.923 137.15 202.341 136.647 204.672C134.714 195.842 133.159 186.93 131.989 177.968C117.151 187.041 98.0313 188.729 81.8332 182.394C78.2955 181.01 74.7819 179.177 72.4454 176.182C70.6047 173.823 69.6226 170.894 69.1078 167.946C67.2804 157.477 71.0254 146.798 76.1084 137.465C78.0371 133.924 80.2337 130.235 80.0779 126.206C80.0244 124.819 79.7254 123.283 80.5355 122.155C80.6499 122.364 75.232 83.6069 77.4055 75.0339C82.6379 54.3952 99.6363 51.6002 110.52 51.8549C117.822 52.0255 164.109 61.2244 170.797 73.7334C179.586 90.1743 177.72 103.997 176.159 113.111C175.694 115.825 153.442 126.943 153.436 127C152.164 138.826 143.627 164.595 136.467 174.094C136.872 177.912 137.277 181.732 137.682 185.55Z" fill="white"></path><path fill-rule="evenodd" clip-rule="evenodd" d="M30.839 137.431C26.6659 135.765 21.6928 136.259 17.9305 138.713C17.5663 138.951 17.0426 138.686 16.8623 138.291C16.682 137.895 16.7494 137.435 16.8416 137.011C18.0433 131.481 22.8301 127.25 28.1535 125.306C33.4769 123.361 39.2998 123.356 44.9586 123.688C45.5201 123.721 46.107 123.765 46.5859 124.059C47.0648 124.354 47.3872 124.983 47.1484 125.492C44.9223 130.232 43.2456 135.229 42.1619 140.351C41.9861 141.181 41.1256 141.732 40.2779 141.802C39.4302 141.871 38.5998 141.558 37.8307 141.196C35.4333 140.068 33.2999 138.413 30.839 137.431Z" fill="white"></path><path fill-rule="evenodd" clip-rule="evenodd" d="M159.108 53.9531C159.315 50.7812 159.076 47.5801 158.4 44.4742L158.385 44.4078C158.27 43.8825 158.153 43.3423 158.258 42.8167C158.492 41.6544 159.783 40.9547 160.969 40.9791C162.154 41.0035 163.253 41.5694 164.302 42.1221C169.333 44.7725 174.455 47.4897 178.416 51.5696C178.54 54.8726 177.762 58.1319 176.993 61.3496L176.921 61.652C173.713 75.1008 171.086 88.6885 169.05 102.364C168.855 103.674 168.485 105.221 167.242 105.68C166.35 106.009 165.313 105.588 164.679 104.879C164.046 104.171 163.743 103.23 163.532 102.303C163.01 100.016 162.948 97.6255 163.348 95.3145C163.593 93.9012 164.007 92.5266 164.421 91.1516L164.422 91.1512V91.1509V91.1506C164.793 89.9165 165.165 88.682 165.415 87.4188C165.665 86.1556 165.791 84.8717 165.913 83.5898C166.562 76.7735 167.113 69.9477 167.565 63.1154C167.628 62.1502 167.687 61.1542 167.37 60.2398C166.808 58.6135 165.169 57.5853 163.514 57.1142C163.229 57.033 162.939 56.9639 162.649 56.8948C161.975 56.7339 161.301 56.573 160.686 56.2598C159.807 55.8117 159.044 54.938 159.108 53.9531ZM162.182 53.6923C164.522 54.1861 166.808 54.9315 168.989 55.912C169.428 56.1094 169.89 56.3404 170.127 56.7593C170.321 57.1014 170.332 57.5135 170.338 57.9067C170.407 62.5244 170.421 67.1547 169.932 71.747C169.639 74.497 169.167 77.2229 168.695 79.9485C168.545 80.8111 168.396 81.674 168.252 82.5373C167.54 86.8102 166.967 91.1059 166.535 95.4157C166.221 98.543 165.991 101.775 166.964 104.764C167.463 104.673 167.655 104.071 167.749 103.573L176.739 56.191C176.957 55.0429 177.174 53.8559 176.918 52.716C176.468 50.7202 174.697 49.3323 172.989 48.2063C169.701 46.0388 166.201 44.1927 162.556 42.7029C162.252 46.3572 162.128 50.0259 162.182 53.6923ZM166.805 84.8107C168.451 76.361 169.194 67.7355 169.019 59.1286C169.006 58.4784 168.971 57.7797 168.573 57.2653C168.282 56.8883 167.837 56.6675 167.402 56.4728C165.769 55.7413 164.052 55.197 162.296 54.854C161.788 54.7547 161.04 54.8624 161.063 55.3799L167.375 57.988C167.745 58.1411 168.139 58.3141 168.348 58.6558C168.554 58.9908 168.534 59.4117 168.507 59.8036L166.805 84.8107ZM160.931 41.8671C160.411 41.522 159.659 41.8776 159.369 42.4307C159.079 42.9837 159.124 43.6455 159.189 44.2662C159.285 45.1772 159.412 46.0886 159.539 47.0003C159.891 49.5291 160.243 52.059 159.944 54.5827C160.422 54.7466 160.955 54.41 161.186 53.9616C161.418 53.5132 161.424 52.9866 161.424 52.4816L161.441 43.381C161.441 42.8249 161.395 42.1743 160.931 41.8671ZM165.605 104.558C165.318 102.309 165.243 100.033 165.381 97.7705C165.455 96.5601 165.589 95.3544 165.723 94.1488C165.901 92.5543 166.078 90.9606 166.115 89.3577C164.804 93.2598 164.309 97.4335 164.671 101.534C164.765 102.601 164.94 103.719 165.605 104.558ZM166.326 87.0527C166.537 86.9582 166.626 86.6619 166.501 86.4672C166.287 86.5728 166.196 86.8719 166.315 87.0788L166.326 87.0527ZM164.366 67.5103C153.933 61.0763 142.136 57.2213 130.339 53.8949C126.567 52.8315 122.765 51.8124 118.871 51.3762C107.333 50.0838 95.636 54.0645 86.0423 60.6032C82.1947 63.2258 78.4822 66.4513 76.82 70.8008C75.5866 74.0279 75.5951 77.5805 75.714 81.0332C76.1244 92.9414 77.6522 104.78 79.1785 116.597C80.3716 116.381 80.4895 114.731 80.3168 113.531C78.7298 102.511 77.8401 91.39 77.6545 80.2577C77.6024 77.1362 77.6186 73.9358 78.699 71.0063C80.6548 65.7038 85.6985 62.2362 90.6475 59.5069C96.881 56.0694 103.657 53.1799 110.774 53.0265C119.395 52.8409 127.566 56.6648 135.096 60.8646C139.295 63.2058 143.552 65.8207 146.223 69.8173C148.648 73.4468 149.529 77.8698 150.165 82.1881C152.185 95.8936 152.259 109.802 152.329 123.656C152.332 124.216 152.298 124.858 151.859 125.207C151.558 125.445 151.149 125.475 150.766 125.495L136.702 126.227C143.255 128.111 150.525 127.368 156.562 124.197L172.189 115.987C173.648 115.221 175.153 114.416 176.159 113.111C177.542 111.314 177.74 108.898 177.805 106.631C178.047 98.2605 177.21 89.8596 175.322 81.7011C175.976 90.5268 176.067 99.3941 175.593 108.231C175.513 109.74 175.391 111.324 174.571 112.593C173.694 113.948 172.17 114.716 170.718 115.421L153.854 123.619C154.552 110.515 154.01 97.3451 152.239 84.343C151.643 79.9698 150.883 75.5353 148.882 71.6017C144.152 62.3053 133.684 57.7066 124.009 53.8102C138.474 58.0418 153.104 62.3436 166.117 69.946C166.286 68.8958 165.272 68.0687 164.366 67.5103ZM218.264 107.51C219.013 109.442 220.068 111.502 222.005 112.239C222.464 112.275 222.738 111.666 222.588 111.231C222.462 110.867 222.166 110.603 221.876 110.343C221.854 110.324 221.833 110.305 221.812 110.286L221.78 110.257L221.755 110.234L221.739 110.22C221.728 110.209 221.717 110.199 221.706 110.189C220.473 109.043 219.867 107.424 219.271 105.829L219.271 105.828C219.153 105.513 219.036 105.199 218.914 104.89C218.175 103.014 217.017 101.055 215.08 100.494C213.887 100.149 212.611 100.407 211.406 100.71C204.603 102.427 198.173 105.609 192.681 109.977C190.292 111.877 187.875 114.57 188.445 117.569C188.66 118.701 189.288 119.707 189.922 120.67C191.127 122.503 192.397 124.293 193.727 126.037C194.309 126.8 194.922 127.57 195.744 128.065C197.136 128.901 198.886 128.81 200.489 128.545C208.77 127.177 215.857 122.03 222.602 117.034C222.952 116.774 223.317 116.497 223.499 116.099C223.681 115.703 223.604 115.15 223.218 114.945C222.776 114.71 222.254 115.034 221.86 115.343C215.584 120.257 208.88 125.058 201.098 126.784C199.623 127.112 197.997 127.304 196.67 126.582C195.677 126.042 195.006 125.07 194.373 124.133L190.447 118.325C190.117 117.836 189.774 117.31 189.762 116.72C189.749 116.129 190.227 115.491 190.812 115.567C196.315 116.282 201.844 116.797 207.384 117.109C207.825 117.133 208.286 117.153 208.688 116.97C209.206 116.733 209.521 116.21 209.797 115.712C212.142 111.484 213.934 106.949 215.112 102.26C216.677 103.382 217.408 105.283 218.105 107.098L218.105 107.099C218.158 107.237 218.211 107.374 218.264 107.51ZM213.421 101.888C212.372 105.81 210.822 109.598 208.818 113.128C208.482 113.72 208.109 114.33 207.522 114.674C206.775 115.111 205.845 115.029 204.985 114.933L191.278 113.403C193.552 110.398 196.93 108.448 200.306 106.772C203.501 105.186 206.781 103.771 210.127 102.535C211.187 102.144 212.298 101.765 213.421 101.888ZM137.682 185.55C138.02 188.739 138.376 191.996 139.731 194.902L137.513 175.157C137.422 174.344 137.449 173.309 138.197 172.978C138.829 180.41 139.772 187.816 141.023 195.169C141.171 196.042 139.86 196.541 139.124 196.049C138.387 195.557 138.152 194.6 137.984 193.731C136.764 187.394 136.093 180.952 135.981 174.5C134.428 174.806 133.338 176.312 133.024 177.864C132.71 179.416 133.013 181.019 133.315 182.573L136.238 197.583C136.694 199.923 137.15 202.341 136.647 204.671C134.713 195.842 133.158 186.93 131.989 177.967C117.15 187.041 98.0307 188.728 81.8327 182.394C78.2949 181.01 74.7816 179.177 72.4448 176.182C70.6042 173.822 69.622 170.893 69.1076 167.946C67.2801 157.476 71.0251 146.798 76.1078 137.465C76.2403 137.221 76.374 136.978 76.5081 136.733C78.3271 133.415 80.2226 129.958 80.0777 126.206C80.0679 125.958 80.0506 125.705 80.033 125.45C79.9524 124.282 79.8697 123.081 80.5349 122.155C81.4273 123.778 81.7673 125.699 81.4859 127.53C96.8474 126.869 112.232 126.736 127.602 127.131C127.782 127.838 126.758 128.166 126.029 128.155C111.685 127.941 97.3338 128.185 83.0051 128.888C82.5513 128.91 82.0751 128.939 81.6904 129.181C81.2857 129.435 81.05 129.881 80.8322 130.307C76.7659 138.264 72.6856 146.336 70.72 155.054C69.7091 159.536 69.322 164.442 71.3939 168.544C72.1796 170.1 73.2915 171.475 74.5324 172.699C81.1956 179.271 91.1731 181.286 100.53 181.129C106.503 181.028 112.462 180.169 118.22 178.58C124.324 176.895 130.412 174.239 134.578 169.47C137.025 166.67 138.688 163.278 140.144 159.857C142.925 153.323 145.058 146.514 146.501 139.562C147.405 139.753 147.418 141.031 147.21 141.931C144.629 153.065 141.629 164.933 133.128 172.572C125.451 179.472 114.632 181.612 104.326 182.189C98.3725 182.523 92.3249 182.418 86.5587 180.901C80.7923 179.383 75.2866 176.347 71.6256 171.64C72.6934 175.712 76.31 178.617 80.0753 180.497C89.9617 185.434 101.636 185.173 112.552 183.457C119.824 182.314 127.288 180.438 132.947 175.73C137.784 171.707 140.867 165.96 143.188 160.111C145.756 153.637 147.538 146.852 148.481 139.951C149.068 139.58 149.504 140.618 149.43 141.309C148.157 153.136 143.626 164.595 136.466 174.093L137.682 185.55ZM130.806 205.773C130.176 204.708 129.769 203.511 129.622 202.281L128.716 205.353L126.429 196.63C126.251 195.953 125.819 195.106 125.135 195.252C124.47 195.393 124.395 196.306 124.494 196.979C124.993 200.363 125.943 203.68 127.312 206.814L124.88 204.68C124.761 205.696 125.029 206.752 125.617 207.59C124.35 206.657 122.65 206.339 121.132 206.75C122.217 208.258 123.69 209.484 125.37 210.277L123.315 207.408C124.976 208.367 126.716 209.189 128.513 209.862L126.771 207.679L128.923 208.275C127.276 204.529 125.599 200.641 125.639 196.55C126.262 199.878 127.174 203.152 128.362 206.323C128.564 206.86 128.787 207.416 129.216 207.797C129.645 208.179 130.342 208.322 130.791 207.965C131.14 207.688 131.242 207.209 131.321 206.77L132.29 201.395L133.355 208.061C134.162 206.022 136.787 205.511 138.979 205.498C141.874 205.479 144.791 205.798 147.7 206.117H147.7H147.701C152.945 206.69 158.165 207.261 163.19 205.85C163.043 206.627 162.785 207.383 162.426 208.088C166.481 207.497 170.583 207.238 174.68 207.314C176.41 207.346 178.146 207.437 179.881 207.528H179.881H179.882H179.882C184.47 207.769 189.058 208.01 193.553 207.158L163.72 206.896C164.28 206.863 164.709 206.212 164.518 205.684C164.327 205.156 163.581 204.93 163.129 205.264C162.836 204.331 161.517 203.916 160.742 204.513C161.191 203.129 162.079 201.89 163.246 201.021C161.929 200.95 160.591 201.353 159.533 202.14L162.741 187.289C162.47 187.056 162.018 187.213 161.817 187.509C161.619 187.803 161.597 188.176 161.576 188.53L161.575 188.541C161.275 193.612 159.487 198.587 156.489 202.688L155.312 199.283L153.625 203.35C152.861 202.758 151.776 202.609 150.88 202.972C151.109 203.842 151.805 204.573 152.662 204.846L153.061 203.776L155.697 205.541C154.689 204.486 154.471 202.759 155.184 201.486L156.779 204.161L159.87 198.048C159.887 200.502 158.835 202.823 157.804 205.05C158.925 204.172 159.888 203.094 160.635 201.882C161.355 203.159 160.568 204.87 159.315 205.63C158.061 206.389 156.511 206.431 155.046 206.369C152.812 206.274 150.56 205.993 148.312 205.713C143.261 205.084 138.225 204.456 133.428 205.943L132.736 199.565C131.68 201.474 131.018 203.601 130.806 205.773ZM160.905 205.944C160.797 205.814 160.797 205.606 160.907 205.477L160.994 205.51C161.14 205.16 161.756 205.188 161.869 205.551C161.585 205.756 161.251 205.892 160.905 205.944ZM177.204 138.176C173.73 136.42 169.595 136.894 165.738 137.422C164.648 137.572 163.537 137.728 162.549 138.214C161.563 138.699 160.703 139.578 160.532 140.664C151.113 139.488 142.087 135.343 135.057 128.963C133.531 127.579 131.974 125.607 132.66 123.664C132.876 123.054 133.296 122.539 133.732 122.06C137.01 118.467 141.528 116.306 145.927 114.231C140.942 114.669 136.158 117.093 132.858 120.856C132.102 121.719 131.405 122.682 131.145 123.799C130.501 126.557 132.644 129.145 134.788 130.995C141.628 136.899 150.233 140.733 159.197 141.872C159.735 141.94 159.763 142.696 159.713 143.235C159.495 145.636 160.804 147.979 162.617 149.566C164.431 151.154 166.703 152.108 168.956 152.961C175.937 155.605 183.181 157.553 190.547 158.765C191.034 158.845 191.702 158.807 191.805 158.325C190.105 157.2 188.059 156.772 186.059 156.353L186.051 156.352L186.029 156.347L185.857 156.311L185.735 156.285C180.663 155.218 175.66 153.827 170.765 152.125C168.756 151.426 166.743 150.664 164.992 149.458C163.241 148.251 161.754 146.548 161.194 144.497C160.917 143.484 161.292 141.972 162.335 142.099C166.578 142.618 170.939 143.13 175.082 142.078C176.02 141.84 176.997 141.481 177.569 140.7C178.14 139.919 178.067 138.612 177.204 138.176ZM166.5 140.98C165.043 140.729 163.555 140.662 162.081 140.781C162.797 139.421 164.546 139.063 166.069 138.856C169.379 138.405 172.825 137.965 175.996 139.015C176.206 139.084 176.429 139.173 176.543 139.362C176.692 139.611 176.583 139.95 176.371 140.149C176.159 140.348 175.87 140.438 175.59 140.516C172.644 141.339 169.514 141.499 166.5 140.98ZM118.297 209.586C120.734 209.518 123.187 210.057 125.372 211.141C124.788 211.98 123.614 212.097 122.592 212.136L95.8883 213.149C95.6438 213.119 95.5978 212.741 95.7708 212.566C95.9442 212.391 96.2155 212.368 96.4617 212.356L122.53 211.085C121.024 210.946 119.554 210.426 118.297 209.586ZM66.9059 121.271C66.5253 123.091 68.0652 125.032 69.9194 125.17C66.8873 129.739 61.4256 131.994 56.1776 133.586C52.9024 134.58 49.2692 135.395 46.147 133.994C45.7596 134.23 46.1727 134.814 46.5819 135.011C49.6204 136.475 53.2228 135.659 56.4547 134.694C61.1946 133.28 66.0802 131.452 69.3057 127.701C69.4375 127.548 69.5692 127.39 69.7016 127.231V127.23C70.5317 126.233 71.3973 125.192 72.6456 124.961C76.6636 124.218 80.0103 121.702 83.3174 119.215H83.3177V119.214H83.318C84.0679 118.65 84.8156 118.088 85.5688 117.548C90.1473 114.267 95.2256 111.683 100.574 109.915C101.047 109.759 101.621 109.469 101.579 108.974C94.9479 109.582 89.1516 113.536 83.8071 117.509L83.6286 117.641C79.9964 120.342 76.201 123.163 71.7316 123.833C73.1912 122.681 72.883 120.021 71.2361 119.158C69.5888 118.295 67.2866 119.451 66.9059 121.271ZM68.1434 122.383C67.8454 121.5 68.3053 120.45 69.1228 120.003C69.3548 119.876 69.6146 119.791 69.8791 119.791C70.7522 119.79 71.3899 120.724 71.3953 121.597C71.401 122.47 70.9587 123.275 70.5286 124.035C69.5225 123.881 68.4689 123.347 68.1434 122.383ZM167.37 102.929C167.123 102.654 167.199 102.283 167.277 101.899C167.333 101.628 167.39 101.35 167.335 101.094C167.288 100.873 167.158 100.684 167.029 100.495C166.914 100.327 166.799 100.159 166.74 99.9674C166.753 99.7141 167.092 99.584 167.323 99.6894C167.554 99.7944 167.683 100.042 167.764 100.283C168.058 101.161 167.907 102.175 167.37 102.929ZM145.016 83.6677C145.633 82.2027 146.858 80.9039 148.42 80.6065C148.926 80.5103 148.91 79.6769 148.467 79.4151C148.024 79.153 147.455 79.3077 146.991 79.5289C144.827 80.5591 143.461 82.8261 142.926 85.1619C142.39 87.4981 142.567 89.9307 142.747 92.3203L143.704 105.023C143.737 105.454 143.776 105.908 144.017 106.268C144.507 107.002 145.557 107.025 146.437 106.969L150.894 106.686C149.903 105.91 148.574 105.583 147.337 105.811C146.614 105.945 145.888 105.468 145.505 104.841C145.122 104.214 145.01 103.463 144.915 102.735C144.294 97.9679 144.066 93.1494 144.235 88.3451C144.291 86.756 144.398 85.1325 145.016 83.6677ZM156.394 196.416C156.141 196.6 155.887 196.182 155.85 195.871C154.128 181.396 153.868 166.791 153.61 152.216L153.437 142.39C153.432 142.11 153.436 141.803 153.615 141.589C153.925 141.219 154.577 141.389 154.847 141.788C155.117 142.186 155.118 142.703 155.109 143.185C154.844 157.528 155.018 171.898 156.391 186.178C156.408 186.351 156.425 186.525 156.442 186.699C156.756 189.943 157.076 193.236 156.394 196.416ZM142.077 105.171C141.699 104.964 141.234 105.081 140.821 105.204C121.73 110.85 102.682 116.672 83.9151 123.317C83.5639 123.442 83.1619 123.621 83.0813 123.985C82.996 124.37 83.3587 124.738 83.7468 124.81C84.1353 124.881 84.5278 124.742 84.8983 124.606C103.706 117.687 122.797 111.538 142.107 106.179C142.521 106.064 142.454 105.378 142.077 105.171Z" fill="#00160A"></path><path fill-rule="evenodd" clip-rule="evenodd" d="M210.097 191.545C209.653 191.74 209.171 191.922 208.693 191.839C208.215 191.757 207.767 191.308 207.863 190.832C208.742 186.481 207.638 181.77 204.919 178.261C203.967 177.031 202.832 175.95 201.903 174.701C201.319 173.915 200.798 172.926 201.095 171.992C201.517 170.663 203.218 170.339 204.609 170.244C207.844 170.024 211.079 169.803 214.314 169.583C215.805 169.481 217.522 169.466 218.517 170.581C221.287 173.683 226.685 173.891 229.686 171.012C230.151 170.566 230.735 171.453 230.717 172.096C230.659 174.119 229.825 176.11 228.424 177.571C228.094 177.915 227.671 178.253 227.196 178.204C226.722 178.154 226.371 177.472 226.75 177.182C227.562 176.558 228.39 175.918 228.959 175.067C229.529 174.215 229.805 173.099 229.416 172.151C227.327 174.795 225.217 177.423 223.088 180.035C219.395 184.563 215.447 189.195 210.097 191.545ZM215.932 178.22C215.401 178.367 214.834 178.253 214.303 178.103C210.485 177.025 206.967 174.041 203.061 174.739C207.616 178.408 210.034 184.557 209.197 190.345C212.198 189.702 214.568 187.462 216.693 185.249C219.839 181.972 222.825 178.543 225.64 174.977C223.617 174.961 221.602 174.377 219.883 173.311C217.76 173.836 218.04 177.636 215.932 178.22ZM218.705 172.195C217.44 170.704 215.167 170.75 213.219 170.921C210.679 171.144 208.138 171.368 205.597 171.591C204.566 171.682 203.381 171.862 202.843 172.747C207.241 173.668 211.528 175.114 215.585 177.044C216.106 175.406 217.152 173.938 218.531 172.91C218.686 172.794 218.863 172.646 218.843 172.453C218.832 172.355 218.769 172.271 218.705 172.195Z" fill="#FFB61D"></path><path fill-rule="evenodd" clip-rule="evenodd" d="M30.3471 136.637C26.5204 135.107 21.9602 135.561 18.5102 137.816C18.1761 138.034 17.6959 137.791 17.5306 137.427C17.3653 137.064 17.4271 136.642 17.5117 136.252C18.6135 131.172 23.003 127.285 27.8845 125.499C32.766 123.712 38.1054 123.707 43.2948 124.013C43.8095 124.043 44.3477 124.083 44.7869 124.354C45.2262 124.624 45.5215 125.202 45.3027 125.669C43.2612 130.024 41.7237 134.614 40.73 139.32C40.5688 140.083 39.7798 140.589 39.0025 140.653C38.2253 140.717 37.4636 140.429 36.7582 140.096C34.5599 139.06 32.6037 137.54 30.3471 136.637ZM30.7845 131.497C30.4435 131.774 29.9104 131.628 29.5895 131.328C29.2686 131.028 29.0857 130.612 28.8335 130.252C27.4805 128.322 24.3756 128.483 22.5351 129.955C20.6947 131.428 19.8041 133.755 18.9931 135.968C24.3925 133.623 31.0428 134.464 35.6876 138.081C36.322 138.575 36.9512 139.131 37.7322 139.321C38.5131 139.511 39.497 139.169 39.6947 138.39C40.7514 134.228 42.0536 130.129 43.5921 126.121C40.64 129.79 34.44 128.528 30.7845 131.497ZM29.6096 129.28C29.9128 129.66 30.4633 129.762 30.9426 129.676C31.4218 129.59 31.8572 129.351 32.3037 129.157C33.841 128.489 35.5437 128.34 37.192 128.034C38.8403 127.728 40.5401 127.211 41.7003 126.002C39.0824 125.994 36.4645 125.986 33.8468 125.978C31.216 125.97 28.3809 126.026 26.2674 127.593C27.5541 127.639 28.8078 128.272 29.6096 129.28Z" fill="#FFB61D"></path><path fill-rule="evenodd" clip-rule="evenodd" d="M153.289 136.286C153.283 133.983 153.277 131.68 153.271 129.378C153.269 128.717 153.267 128.055 153.266 127.394C153.264 126.938 153.341 126.367 153.774 126.225C154.102 126.118 154.463 126.354 154.616 126.663C154.769 126.972 154.768 127.332 154.762 127.677C154.714 130.89 154.667 134.104 154.619 137.317C154.612 137.779 154.535 138.348 154.102 138.51C153.38 138.101 153.292 137.115 153.289 136.286Z" fill="#00160A"></path><path fill-rule="evenodd" clip-rule="evenodd" d="M148.693 134.156C148.36 134.302 148.188 133.753 148.239 133.393C148.424 132.104 148.609 130.811 148.922 129.547C149.118 128.76 149.399 127.932 150.049 127.447C150.699 126.962 151.815 127.047 152.133 127.793C152.288 128.154 152.223 128.567 152.153 128.954C151.715 131.346 151.126 133.71 150.389 136.028C150.358 136.126 150.324 136.229 150.249 136.3C150.068 136.474 149.741 136.357 149.615 136.14C149.49 135.922 149.506 135.654 149.526 135.404C149.825 135.382 149.965 135.03 150.037 134.738C150.33 133.548 150.624 132.359 150.917 131.169C151.146 130.243 151.354 129.188 150.822 128.396C150.277 128.733 150.071 129.413 149.909 130.033C149.582 131.281 149.255 132.529 148.928 133.777C148.889 133.926 148.834 134.094 148.693 134.156Z" fill="#00160A"></path></svg>